<?xml version="1.0" encoding="utf-8"?>
<!-- Generator: Adobe Illustrator 24.0.1, SVG Export Plug-In . SVG Version: 6.00 Build 0)  -->
<svg version="1.1" xmlns="http://www.w3.org/2000/svg" xmlns:xlink="http://www.w3.org/1999/xlink" x="0px" y="0px"
	 viewBox="0 0 1500 1500" style="enable-background:new 0 0 1500 1500;" xml:space="preserve">
<style type="text/css">
	.st0{fill:#FAD4DB;}
	.st1{fill:#F3E9E9;}
	.st2{fill:#E52421;}
	.st3{fill:#EC6164;}
</style>
<g id="Laag_1">
	<circle class="st0" cx="750" cy="750" r="662.98"/>
</g>
<g id="Laag_3">
	<g>
		<g>
			<polygon class="st1" points="434.85,1076.28 523.29,951.45 618.12,855.3 750,845.46 928.67,997.18 992.39,1148.79 
				1111.26,1085.07 1073.75,830.2 1256.05,656.67 1009.97,399.56 658.42,331.44 350.82,535.78 266.63,749.55 290.18,915.18 
				368.4,1024.67 			"/>
		</g>
		<g>
			<path class="st0" d="M527.44,656.67c-4.39,19.49-85.1-105.58-159.04-10.8c-31.95,40.95,49.64,220.16,20.62,254.41
				c-23.45,27.67-47.64,43.71-71.19,35.51c-58.65-20.43-67.9-134.33-22.62-249.13s128.83-189.39,186.6-166.61
				C539.58,542.84,550.37,554.85,527.44,656.67z"/>
		</g>
		<g>
			<polygon class="st0" points="664.16,1054.72 728.33,906.84 721.89,845.46 618.12,855.3 530.23,932.81 474.43,1082.62 
				499.54,1183.07 580.45,1210.97 			"/>
		</g>
		<g>
			<path class="st0" d="M969.44,658.38c4.32,20.12,94.91-111.48,173.07-14.87c33.77,41.74-59.01,229.52-28.26,264.39
				c24.84,28.17,50.76,44.24,76.54,35.19c64.2-22.54,76.88-140.91,30.32-258.95s-135.63-193.5-198.93-168.53
				C958.87,540.58,946.87,553.28,969.44,658.38z"/>
		</g>
		<g>
			<path class="st2" d="M1444.51,612.66c-19.91-57.52-98.3-107.51-199.7-127.35c-63.75-12.47-90.46-1.03-115.06-27.17
				c-9.59-10.19-28.78-26.91-39.33-35.12c-7-5.45-21.42-19.03-45.86-32.82c-46.44-26.21-67.77-40.81-115.99-54.93
				c-62.4-18.27-99.16-30.21-201.47-27.93c-12.76,0.45-149.61,4.33-271.87,85.85c-52.91,35.28-76.48,56.97-99.3,84.16
				c-3.28,3.91-10.07,18.84-15.88,18.34c-20.59-1.86-41.03,4.68-59.07,18.92c-7,5.53-70.08,55.6-128.6,111.25
				C59.67,714.03,49.83,748.05,50.5,765.98c1.52,41.12,46.71,111.35,60.52,131.9c13.79,20.51,61.2,88.11,92.3,96.75
				c9.21,2.56,18.38,0.98,26.52-4.55c4.71-3.2,11.64-14.31,17.94-25.94c4.95-9.14,18.34-8.13,21.97,1.61
				c13.7,36.8,37.04,72.74,81.16,122.2c73.02,81.86,167.24,144.43,325.69,172.42c10.14,1.79,88.44,5.09,101.5,4.5
				c113.5-5.08,169.71-29.43,247.57-71.42c69.44-37.44,108.22-77.7,145.59-127.34c35.02-46.52,57.38-85.65,69.33-114.9
				c3.29-8.06,13.7-10.12,19.83-3.93c8.3,8.38,18.03,17.03,26.16,17.75c24.2,2.13,48.04-13.01,70.91-45.03
				C1419.58,833.07,1465.13,672.22,1444.51,612.66z M378.21,656.67c0-5.97,4.84-10.8,10.8-10.8c5.97,0,10.8,4.84,10.8,10.8
				c0,5.97-4.84,10.8-10.8,10.8C383.05,667.48,378.21,662.64,378.21,656.67z M397.39,745.45c-32.18-12.25,25.67-26.94,37.93-59.12
				c12.25-32.18-25.73-69.66,6.44-57.41c32.18,12.25,48.33,48.27,36.08,80.45C465.58,741.56,429.57,757.71,397.39,745.45z
				 M644.99,996.09c-43.12,31.19-17.82,97.82-69.17,106.22c-38.79,6.35-81.9-13.86-55.72-109.75
				c21.87-80.09,93.9-132.1,156.11-132.1C696.54,860.46,748.67,921.09,644.99,996.09z M662.99,817.66
				c-61.61,27.8-107.56,56.77-151.26,144.05c-46.68,93.22-76.73,75.81-76.73,51.5c0-166.47,64.64-220.98,132.9-295.09
				c20.01-21.73,68.3-50.03,77.59-38.99c2.62,3.12,31.46,30.12,45.35,35.07C704.71,719.16,690.39,805.29,662.99,817.66z
				 M1018.48,1053.18c-16.86,0.14-28.63-43.98-31.6-52.94c-9.39-28.33-9.5-28.9-20.93-49.24c-37.34-66.48-36.92-73.12-136.5-104.9
				c-60.18-19.21-76.03-68.23-76.11-97.68c-0.03-10.41,5.22-27.18,10.54-27.96c43.9-6.5,61.08-14.44,73.52-22.39
				c14.43-9.22,28.14-20.78,33.07-18.82c25.66,10.17,50.45,33.31,86.97,71.69c18.84,19.8,18.84,19.8,29.45,35.06
				c19.96,28.72,57.44,108.49,57.62,227.19C1044.56,1043.15,1033.31,1053.06,1018.48,1053.18z M1031.39,704.88
				c-8.04-33.48,12.59-67.14,46.07-75.17s-4.35,29.75,3.69,63.23c8.04,33.48,58.9,49.98,25.42,58.01
				C1073.08,758.98,1039.42,738.36,1031.39,704.88z M1111.26,656.67c0-5.97,4.84-10.8,10.8-10.8c5.97,0,10.8,4.84,10.8,10.8
				c0,5.97-4.84,10.8-10.8,10.8C1116.1,667.48,1111.26,662.64,1111.26,656.67z M1176.97,915.9c-15.32,5.12-41.54,2.96-42.06,2.89
				c-6.01-0.76-25.53-16.28-22.31-42.21c5.37-43.26,12.08-40.6,23.05-55.04c16.59-21.84,22.07-32.11,29.25-50.89
				c14.84-38.82,17.45-111.95-38.71-154.78c-60.79-46.36-107.38-24.71-136.07,12.34c-15.63,20.18-77.39-33.75-124.49-48.47
				C750,543.58,676.12,569.36,676.12,569.36c-66.89,15.06-116.17,62.41-149,66.59c-12.4,1.58-20.41-15.69-24.63-21.34
				c-27.32-36.6-113.48-46.25-157.51,48.94c-19.68,42.55-13.59,101.26,6.36,134.37c37.67,62.52,16.08,186.94-31.35,111.12
				c-0.56-0.05-19.62-91.46-16.9-142.44c6.82-127.8,130.93-274.16,143.15-287c40.17-42.23,169.95-106.39,263-108.62
				c11.81-0.28,33.26-2.43,52.27-2.43c87.07,0,210.14,35.44,291.22,105.49c87.91,75.96,134.06,156.16,146.98,254.5
				C1208.09,792.26,1225.95,899.54,1176.97,915.9z"/>
		</g>
		<g>
			<g>
				<path class="st3" d="M1181.58,839.01h-63.23c-99.02,0-179.58-80.56-179.58-179.58V596.2c0-34.98,28.46-63.45,63.45-63.45h179.36
					c34.98,0,63.45,28.46,63.45,63.45v179.36C1245.02,810.55,1216.56,839.01,1181.58,839.01z M1002.22,582.75
					c-7.42,0-13.45,6.03-13.45,13.45v63.23c0,34.44,13.53,66.93,38.09,91.49c24.56,24.56,57.05,38.09,91.49,38.09h63.23
					c7.42,0,13.45-6.03,13.45-13.45V596.2c0-7.42-6.03-13.45-13.45-13.45H1002.22z"/>
			</g>
			<g>
				<path class="st3" d="M382.14,836.92h-63.23c-34.98,0-63.45-28.46-63.45-63.45V594.11c0-34.98,28.46-63.45,63.45-63.45h179.36
					c34.98,0,63.45,28.46,63.45,63.45v63.23C561.72,756.36,481.16,836.92,382.14,836.92z M318.92,580.66
					c-7.42,0-13.45,6.03-13.45,13.45v179.36c0,7.42,6.03,13.45,13.45,13.45h63.23c34.44,0,66.93-13.53,91.49-38.09
					c24.56-24.56,38.09-57.05,38.09-91.49v-63.23c0-7.42-6.03-13.45-13.45-13.45H318.92z"/>
			</g>
			<g>
				<path class="st3" d="M547.52,642.25l-28.73-40.92c2.49-1.75,61.92-43.03,148.33-63.93c51.22-12.39,101.4-15.06,149.16-7.94
					c60,8.95,115.99,33.37,166.41,72.6l-30.7,39.46c-43.55-33.88-91.7-54.94-143.09-62.61c-41.35-6.17-85.1-3.79-130.03,7.08
					C601.58,604.7,548.05,641.87,547.52,642.25z"/>
			</g>
		</g>
	</g>
</g>
</svg>
